<?xml version="1.0" encoding="UTF-8"?>
<svg id="Layer_1" data-name="Layer 1" xmlns="http://www.w3.org/2000/svg" viewBox="0 0 905 280">
  <defs>
    <style>
      .cls-1 {
        fill: #fff;
      }
    </style>
  </defs>
  <g>
    <path class="cls-1" d="M60.8,151.24l-18.42,19.04v54H.25V1.11h42.14v123.6l56.81-60.55h50.88l-58.99,60.86,66.17,99.25h-51.5l-44.95-73.04Z"/>
    <path class="cls-1" d="M151.94,144.37c0-47.75,34.02-84.58,83.65-84.58s83.65,36.83,83.65,84.58-34.02,84.58-83.65,84.58-83.65-36.83-83.65-84.58ZM276.16,144.37c0-31.21-14.67-52.44-40.58-52.44s-40.58,21.22-40.58,52.44,14.36,52.12,40.58,52.12,40.58-20.91,40.58-52.12Z"/>
    <path class="cls-1" d="M339.51,1.11h42.45v223.17h-42.45V1.11Z"/>
    <path class="cls-1" d="M402.25,144.06c0-47.44,32.15-84.27,78.97-84.27,51.5,0,78.97,39.33,78.97,96.45h-116.11c3.12,24.66,16.85,39.95,40.89,39.95,16.54,0,26.22-7.49,30.9-19.66h41.82c-5.93,28.4-31.21,52.44-72.41,52.44-53.06,0-83.02-37.14-83.02-84.9ZM444.7,126.89h71.16c-1.25-20.29-14.67-34.33-34.02-34.33-22.47,0-33.4,13.42-37.14,34.33Z"/>
    <path class="cls-1" d="M575.47,228.95h42.14c3.43,9.99,12.48,17.79,32.15,17.79,24.03,0,35.58-11.55,35.58-33.4v-17.48h-.94c-9.36,10.61-21.54,18.73-41.82,18.73-35.58,0-70.54-28.09-70.54-76.47s28.72-78.34,69.29-78.34c19.98,0,34.65,7.8,44.32,21.22h.62v-16.86h40.89v147.95c0,22.47-7.18,37.77-19.04,48.69-13.42,12.48-34.02,18.1-57.74,18.1-43.7,0-70.54-18.73-74.91-49.94ZM687.52,137.19c0-23.41-12.48-43.39-38.08-43.39-21.54,0-35.89,16.85-35.89,43.7s14.36,43.07,36.21,43.07c26.84,0,37.77-19.66,37.77-43.38Z"/>
    <path class="cls-1" d="M746.82,144.06c0-47.44,32.15-84.27,78.97-84.27,51.5,0,78.97,39.33,78.97,96.45h-116.11c3.12,24.66,16.85,39.95,40.89,39.95,16.54,0,26.22-7.49,30.9-19.66h41.82c-5.93,28.4-31.21,52.44-72.41,52.44-53.06,0-83.02-37.14-83.02-84.9ZM789.27,126.89h71.16c-1.25-20.29-14.67-34.33-34.02-34.33-22.47,0-33.4,13.42-37.14,34.33Z"/>
  </g>
  <rect class="cls-1" x="180.96" y="1.11" width="39.95" height="35.58"/>
  <rect class="cls-1" x="250.57" y="1.11" width="39.95" height="35.58"/>
</svg>